<svg width="16" height="16" viewBox="0 0 16 16" fill="currentColor" xmlns="http://www.w3.org/2000/svg">
<path d="M7.33317 13.2663V2.73301C7.33317 1.73301 6.9065 1.33301 5.8465 1.33301H3.15317C2.09317 1.33301 1.6665 1.73301 1.6665 2.73301V13.2663C1.6665 14.2663 2.09317 14.6663 3.15317 14.6663H5.8465C6.9065 14.6663 7.33317 14.2663 7.33317 13.2663Z" fill="currentColor"/>
<path d="M14.3332 13.0937V10.2403C14.3332 9.37366 13.6665 8.66699 12.8465 8.66699H10.1532C9.33317 8.66699 8.6665 9.37366 8.6665 10.2403V13.0937C8.6665 13.9603 9.33317 14.667 10.1532 14.667H12.8465C13.6665 14.667 14.3332 13.9603 14.3332 13.0937Z" fill="currentColor"/>
<path d="M14.3332 5.75968V2.90634C14.3332 2.03967 13.6665 1.33301 12.8465 1.33301H10.1532C9.33317 1.33301 8.6665 2.03967 8.6665 2.90634V5.75968C8.6665 6.62634 9.33317 7.33301 10.1532 7.33301H12.8465C13.6665 7.33301 14.3332 6.62634 14.3332 5.75968Z" fill="currentColor"/>
</svg>
