<svg width="25" height="24" viewBox="0 0 25 24" fill="currentColor" xmlns="http://www.w3.org/2000/svg">
<path d="M22.86 8.27L22.57 5.5C22.15 2.48 20.78 1.25 17.85 1.25H15.49H14.01H10.97H9.49002H7.09002C4.15002 1.25 2.79002 2.48 2.36002 5.53L2.09002 8.28C1.99002 9.35 2.28002 10.39 2.91002 11.2C3.67002 12.19 4.84002 12.75 6.14002 12.75C7.40002 12.75 8.61002 12.12 9.37002 11.11C10.05 12.12 11.21 12.75 12.5 12.75C13.79 12.75 14.92 12.15 15.61 11.15C16.38 12.14 17.57 12.75 18.81 12.75C20.14 12.75 21.34 12.16 22.09 11.12C22.69 10.32 22.96 9.31 22.86 8.27Z" fill="currentColor"/>
<path d="M11.85 16.6602C10.58 16.7902 9.62 17.8702 9.62 19.1502V21.8902C9.62 22.1602 9.83999 22.3802 10.11 22.3802H14.88C15.15 22.3802 15.37 22.1602 15.37 21.8902V19.5002C15.38 17.4102 14.15 16.4202 11.85 16.6602Z" fill="currentColor"/>
<path d="M21.87 14.4001V17.3801C21.87 20.1401 19.63 22.3801 16.87 22.3801C16.6 22.3801 16.38 22.1601 16.38 21.8901V19.5001C16.38 18.2201 15.99 17.2201 15.23 16.5401C14.56 15.9301 13.65 15.6301 12.52 15.6301C12.27 15.6301 12.02 15.6401 11.75 15.6701C9.97001 15.8501 8.62 17.3501 8.62 19.1501V21.8901C8.62 22.1601 8.4 22.3801 8.13 22.3801C5.37 22.3801 3.13 20.1401 3.13 17.3801V14.4201C3.13 13.7201 3.82 13.2501 4.47 13.4801C4.74 13.5701 5.01 13.6401 5.29 13.6801C5.41 13.7001 5.54 13.7201 5.66 13.7201C5.82 13.7401 5.98 13.7501 6.14 13.7501C7.3 13.7501 8.44 13.3201 9.34 12.5801C10.2 13.3201 11.32 13.7501 12.5 13.7501C13.69 13.7501 14.79 13.3401 15.65 12.6001C16.55 13.3301 17.67 13.7501 18.81 13.7501C18.99 13.7501 19.17 13.7401 19.34 13.7201C19.46 13.7101 19.57 13.7001 19.68 13.6801C19.99 13.6401 20.27 13.5501 20.55 13.4601C21.2 13.2401 21.87 13.7201 21.87 14.4001Z" fill="currentColor"/>
</svg>
