<svg width="40" height="40" viewBox="0 0 40 40" fill="none" xmlns="http://www.w3.org/2000/svg">
<path d="M27.9167 5.93398V3.33398C27.9167 2.65065 27.35 2.08398 26.6667 2.08398C25.9833 2.08398 25.4167 2.65065 25.4167 3.33398V5.83398H14.5833V3.33398C14.5833 2.65065 14.0167 2.08398 13.3333 2.08398C12.65 2.08398 12.0833 2.65065 12.0833 3.33398V5.93398C7.58334 6.35065 5.40001 9.03398 5.06667 13.0173C5.03334 13.5007 5.43334 13.9007 5.90001 13.9007H34.1C34.5833 13.9007 34.9833 13.484 34.9333 13.0173C34.6 9.03398 32.4167 6.35065 27.9167 5.93398Z" fill="#2EAA62"/>
<path d="M33.3333 16.4004H6.66667C5.75 16.4004 5 17.1504 5 18.0671V28.3337C5 33.3337 7.5 36.6671 13.3333 36.6671H26.6667C32.5 36.6671 35 33.3337 35 28.3337V18.0671C35 17.1504 34.25 16.4004 33.3333 16.4004ZM15.35 30.3504C15.2667 30.4171 15.1833 30.5004 15.1 30.5504C15 30.6171 14.9 30.6671 14.8 30.7004C14.7 30.7504 14.6 30.7837 14.5 30.8004C14.3833 30.8171 14.2833 30.8337 14.1667 30.8337C13.95 30.8337 13.7333 30.7837 13.5333 30.7004C13.3167 30.6171 13.15 30.5004 12.9833 30.3504C12.6833 30.0337 12.5 29.6004 12.5 29.1671C12.5 28.7337 12.6833 28.3004 12.9833 27.9837C13.15 27.8337 13.3167 27.7171 13.5333 27.6337C13.8333 27.5004 14.1667 27.4671 14.5 27.5337C14.6 27.5504 14.7 27.5837 14.8 27.6337C14.9 27.6671 15 27.7171 15.1 27.7837C15.1833 27.8504 15.2667 27.9171 15.35 27.9837C15.65 28.3004 15.8333 28.7337 15.8333 29.1671C15.8333 29.6004 15.65 30.0337 15.35 30.3504ZM15.35 24.5171C15.0333 24.8171 14.6 25.0004 14.1667 25.0004C13.7333 25.0004 13.3 24.8171 12.9833 24.5171C12.6833 24.2004 12.5 23.7671 12.5 23.3337C12.5 22.9004 12.6833 22.4671 12.9833 22.1504C13.45 21.6837 14.1833 21.5337 14.8 21.8004C15.0167 21.8837 15.2 22.0004 15.35 22.1504C15.65 22.4671 15.8333 22.9004 15.8333 23.3337C15.8333 23.7671 15.65 24.2004 15.35 24.5171ZM21.1833 30.3504C20.8667 30.6504 20.4333 30.8337 20 30.8337C19.5667 30.8337 19.1333 30.6504 18.8167 30.3504C18.5167 30.0337 18.3333 29.6004 18.3333 29.1671C18.3333 28.7337 18.5167 28.3004 18.8167 27.9837C19.4333 27.3671 20.5667 27.3671 21.1833 27.9837C21.4833 28.3004 21.6667 28.7337 21.6667 29.1671C21.6667 29.6004 21.4833 30.0337 21.1833 30.3504ZM21.1833 24.5171C21.1 24.5837 21.0167 24.6504 20.9333 24.7171C20.8333 24.7837 20.7333 24.8337 20.6333 24.8671C20.5333 24.9171 20.4333 24.9504 20.3333 24.9671C20.2167 24.9837 20.1167 25.0004 20 25.0004C19.5667 25.0004 19.1333 24.8171 18.8167 24.5171C18.5167 24.2004 18.3333 23.7671 18.3333 23.3337C18.3333 22.9004 18.5167 22.4671 18.8167 22.1504C18.9667 22.0004 19.15 21.8837 19.3667 21.8004C19.9833 21.5337 20.7167 21.6837 21.1833 22.1504C21.4833 22.4671 21.6667 22.9004 21.6667 23.3337C21.6667 23.7671 21.4833 24.2004 21.1833 24.5171ZM27.0167 30.3504C26.7 30.6504 26.2667 30.8337 25.8333 30.8337C25.4 30.8337 24.9667 30.6504 24.65 30.3504C24.35 30.0337 24.1667 29.6004 24.1667 29.1671C24.1667 28.7337 24.35 28.3004 24.65 27.9837C25.2667 27.3671 26.4 27.3671 27.0167 27.9837C27.3167 28.3004 27.5 28.7337 27.5 29.1671C27.5 29.6004 27.3167 30.0337 27.0167 30.3504ZM27.0167 24.5171C26.9333 24.5837 26.85 24.6504 26.7667 24.7171C26.6667 24.7837 26.5667 24.8337 26.4667 24.8671C26.3667 24.9171 26.2667 24.9504 26.1667 24.9671C26.05 24.9837 25.9333 25.0004 25.8333 25.0004C25.4 25.0004 24.9667 24.8171 24.65 24.5171C24.35 24.2004 24.1667 23.7671 24.1667 23.3337C24.1667 22.9004 24.35 22.4671 24.65 22.1504C24.8167 22.0004 24.9833 21.8837 25.2 21.8004C25.5 21.6671 25.8333 21.6337 26.1667 21.7004C26.2667 21.7171 26.3667 21.7504 26.4667 21.8004C26.5667 21.8337 26.6667 21.8837 26.7667 21.9504C26.85 22.0171 26.9333 22.0837 27.0167 22.1504C27.3167 22.4671 27.5 22.9004 27.5 23.3337C27.5 23.7671 27.3167 24.2004 27.0167 24.5171Z" fill="#2EAA62"/>
</svg>
