<svg width="14" height="14" viewBox="0 0 14 14" fill="none" xmlns="http://www.w3.org/2000/svg">
<path d="M9.7935 0.333008H4.20683C1.78016 0.333008 0.333496 1.77967 0.333496 4.20634V9.78634C0.333496 12.2197 1.78016 13.6663 4.20683 13.6663H9.78683C12.2135 13.6663 13.6602 12.2197 13.6602 9.79301V4.20634C13.6668 1.77967 12.2202 0.333008 9.7935 0.333008ZM5.0735 10.2663C5.0735 10.453 4.92683 10.5997 4.74016 10.5997H2.88016C2.6935 10.5997 2.54683 10.453 2.54683 10.2663V7.18634C2.54683 6.76634 2.88683 6.42634 3.30683 6.42634H4.74016C4.92683 6.42634 5.0735 6.57301 5.0735 6.75968V10.2663ZM8.26016 10.2663C8.26016 10.453 8.1135 10.5997 7.92683 10.5997H6.06683C5.88016 10.5997 5.7335 10.453 5.7335 10.2663V4.15967C5.7335 3.73967 6.0735 3.39967 6.4935 3.39967H7.50683C7.92683 3.39967 8.26683 3.73967 8.26683 4.15967V10.2663H8.26016ZM11.4535 10.2663C11.4535 10.453 11.3068 10.5997 11.1202 10.5997H9.26016C9.0735 10.5997 8.92683 10.453 8.92683 10.2663V7.89967C8.92683 7.71301 9.0735 7.56634 9.26016 7.56634H10.6935C11.1135 7.56634 11.4535 7.90634 11.4535 8.32634V10.2663Z" fill="#2EAA7B"/>
</svg>
