<svg width="16" height="16" viewBox="0 0 16 16" fill="none" xmlns="http://www.w3.org/2000/svg">
<path d="M11.3998 1.33301H8.59984C6.67914 1.33301 5.71152 1.96994 5.42907 3.49228C5.32748 4.03984 5.79484 4.49967 6.35175 4.49967H7.39984C10.1998 4.49967 11.4998 5.79967 11.4998 8.59967V9.64777C11.4998 10.2047 11.9597 10.672 12.5072 10.5704C14.0296 10.288 14.6665 9.32037 14.6665 7.39967V4.59967C14.6665 2.26634 13.7332 1.33301 11.3998 1.33301Z" fill="#2EAA62"/>
<path d="M7.40016 5.33301H4.60016C2.26683 5.33301 1.3335 6.26634 1.3335 8.59967V11.3997C1.3335 13.733 2.26683 14.6663 4.60016 14.6663H7.40016C9.7335 14.6663 10.6668 13.733 10.6668 11.3997V8.59967C10.6668 6.26634 9.7335 5.33301 7.40016 5.33301ZM8.1935 9.09967L5.72016 11.573C5.62683 11.6663 5.50683 11.713 5.38016 11.713C5.2535 11.713 5.1335 11.6663 5.04016 11.573L3.80016 10.333C3.6135 10.1463 3.6135 9.84634 3.80016 9.65967C3.98683 9.47301 4.28683 9.47301 4.4735 9.65967L5.3735 10.5597L7.5135 8.41967C7.70016 8.23301 8.00016 8.23301 8.18683 8.41967C8.3735 8.60634 8.38016 8.91301 8.1935 9.09967Z" fill="#2EAA62"/>
</svg>
