<svg width="40" height="40" viewBox="0 0 40 40" fill="none" xmlns="http://www.w3.org/2000/svg">
<path d="M21.25 26.5332H22.3333C23.4167 26.5332 24.3167 25.5665 24.3167 24.3999C24.3167 22.9499 23.8 22.6665 22.95 22.3665L21.2667 21.7832V26.5332H21.25Z" fill="#2EAA62"/>
<path d="M19.95 3.16604C10.75 3.19938 3.30003 10.6827 3.33336 19.8827C3.3667 29.0827 10.85 36.5327 20.05 36.4994C29.25 36.466 36.7 28.9827 36.6667 19.7827C36.6334 10.5827 29.15 3.14938 19.95 3.16604ZM23.7667 19.9994C25.0667 20.4494 26.8167 21.416 26.8167 24.3994C26.8167 26.966 24.8 29.0327 22.3334 29.0327H21.25V29.9994C21.25 30.6827 20.6834 31.2494 20 31.2494C19.3167 31.2494 18.75 30.6827 18.75 29.9994V29.0327H18.15C15.4167 29.0327 13.2 26.7327 13.2 23.8994C13.2 23.216 13.7667 22.6494 14.45 22.6494C15.1334 22.6494 15.7 23.216 15.7 23.8994C15.7 25.3494 16.8 26.5327 18.15 26.5327H18.75V20.8994L16.2334 19.9994C14.9334 19.5494 13.1834 18.5827 13.1834 15.5994C13.1834 13.0327 15.2 10.966 17.6667 10.966H18.75V9.99938C18.75 9.31604 19.3167 8.74938 20 8.74938C20.6834 8.74938 21.25 9.31604 21.25 9.99938V10.966H21.85C24.5834 10.966 26.8 13.266 26.8 16.0994C26.8 16.7827 26.2334 17.3494 25.55 17.3494C24.8667 17.3494 24.3 16.7827 24.3 16.0994C24.3 14.6494 23.2 13.466 21.85 13.466H21.25V19.0994L23.7667 19.9994Z" fill="#2EAA62"/>
<path d="M15.7 15.6168C15.7 17.0668 16.2167 17.3501 17.0667 17.6501L18.75 18.2335V13.4668H17.6667C16.5833 13.4668 15.7 14.4335 15.7 15.6168Z" fill="#2EAA62"/>
</svg>
