<svg width="16" height="16" viewBox="0 0 16 16" fill="none" xmlns="http://www.w3.org/2000/svg">
<path d="M14.6666 7.50065H13.3066C13.0666 4.96065 11.04 2.92732 8.49998 2.69398V1.33398C8.49998 1.06065 8.27331 0.833984 7.99998 0.833984C7.72665 0.833984 7.49998 1.06065 7.49998 1.33398V2.69398C4.95998 2.93398 2.92665 4.96065 2.69331 7.50065H1.33331C1.05998 7.50065 0.833313 7.72732 0.833313 8.00065C0.833313 8.27398 1.05998 8.50065 1.33331 8.50065H2.69331C2.93331 11.0407 4.95998 13.074 7.49998 13.3073V14.6673C7.49998 14.9407 7.72665 15.1673 7.99998 15.1673C8.27331 15.1673 8.49998 14.9407 8.49998 14.6673V13.3073C11.04 13.0673 13.0733 11.0407 13.3066 8.50065H14.6666C14.94 8.50065 15.1666 8.27398 15.1666 8.00065C15.1666 7.72732 14.94 7.50065 14.6666 7.50065ZM7.99998 10.0807C6.85331 10.0807 5.91998 9.14732 5.91998 8.00065C5.91998 6.85398 6.85331 5.92065 7.99998 5.92065C9.14665 5.92065 10.08 6.85398 10.08 8.00065C10.08 9.14732 9.14665 10.0807 7.99998 10.0807Z" fill="#2EAA7B"/>
</svg>
