<svg width="40" height="40" viewBox="0 0 40 40" fill="none" xmlns="http://www.w3.org/2000/svg">
<path d="M20 37.0757C29.325 37.0757 37.0758 29.3415 37.0758 20C37.0758 10.675 29.3079 2.92432 19.9829 2.92432C10.6422 2.92432 2.92505 10.675 2.92505 20C2.92505 29.3415 10.6586 37.0757 20 37.0757ZM20.0008 34.23C12.0979 34.23 5.78576 27.9015 5.78576 20C5.78576 12.1143 12.0808 5.77003 19.9829 5.77003C27.8679 5.77003 34.2122 12.115 34.2293 20C34.2458 27.9022 27.8843 34.23 19.9993 34.23M15.8979 12.5336C13.0186 12.5336 10.9258 14.71 10.9258 17.7229C10.9258 22.21 15.68 26.3279 19.1622 28.555C19.4472 28.7222 19.815 28.9565 20.0329 28.9565C20.25 28.9565 20.5686 28.7222 20.8365 28.555C24.3186 26.3279 29.0565 22.21 29.0565 17.7236C29.0565 14.7093 26.98 12.5336 24.0843 12.5336C22.2929 12.5336 20.8365 13.5715 19.9986 15.1286C19.1458 13.5715 17.7222 12.5336 15.8979 12.5336Z" fill="#2EAA7B"/>
</svg>
