<svg width="16" height="16" viewBox="0 0 16 16" fill="currentColor" xmlns="http://www.w3.org/2000/svg">
<path d="M14 14.666H2C1.72667 14.666 1.5 14.4393 1.5 14.166C1.5 13.8927 1.72667 13.666 2 13.666H14C14.2733 13.666 14.5 13.8927 14.5 14.166C14.5 14.4393 14.2733 14.666 14 14.666Z" fill="currentColor"/>
<path d="M12.6804 2.32043C11.387 1.0271 10.1204 0.993764 8.79371 2.32043L7.98704 3.1271C7.92037 3.19376 7.89371 3.30043 7.92038 3.39376C8.42704 5.16043 9.84038 6.57376 11.607 7.08043C11.6337 7.0871 11.6604 7.09376 11.687 7.09376C11.7604 7.09376 11.827 7.0671 11.8804 7.01376L12.6804 6.2071C13.3404 5.55376 13.6604 4.92043 13.6604 4.28043C13.667 3.62043 13.347 2.98043 12.6804 2.32043Z" fill="currentColor"/>
<path d="M10.4067 7.68654C10.2133 7.5932 10.0267 7.49987 9.84668 7.3932C9.70001 7.30654 9.56001 7.2132 9.42001 7.1132C9.30668 7.03987 9.17334 6.9332 9.04667 6.82654C9.03334 6.81987 8.98667 6.77987 8.93334 6.72654C8.71334 6.53987 8.46668 6.29987 8.24668 6.0332C8.22668 6.01987 8.19334 5.9732 8.14668 5.9132C8.08001 5.8332 7.96668 5.69987 7.86668 5.54654C7.78668 5.44654 7.69334 5.29987 7.60668 5.1532C7.50001 4.9732 7.40668 4.7932 7.31334 4.60654C7.19097 4.34431 6.8468 4.26641 6.64218 4.47103L2.89334 8.21987C2.80668 8.30654 2.72668 8.4732 2.70668 8.58654L2.34668 11.1399C2.28001 11.5932 2.40668 12.0199 2.68668 12.3065C2.92668 12.5399 3.26001 12.6665 3.62001 12.6665C3.70001 12.6665 3.78001 12.6599 3.86001 12.6465L6.42001 12.2865C6.54001 12.2665 6.70668 12.1865 6.78668 12.0999L10.5417 8.34484C10.7422 8.14432 10.6669 7.79929 10.4067 7.68654Z" fill="currentColor"/>
</svg>
