<svg width="40" height="40" viewBox="0 0 40 40" fill="none" xmlns="http://www.w3.org/2000/svg">
<path d="M17.0833 16.716C17.0833 17.616 17.3333 17.7493 17.9 17.9493L18.75 18.2493V15.416H18.25C17.6166 15.416 17.0833 15.9993 17.0833 16.716Z" fill="#2EAA62"/>
<path d="M21.25 24.5833H21.75C22.4 24.5833 22.9167 24 22.9167 23.2833C22.9167 22.3833 22.6667 22.25 22.1 22.05L21.25 21.75V24.5833Z" fill="#2EAA62"/>
<path d="M32.6333 9.13398L29.2166 12.5507C28.9666 12.8007 28.65 12.9173 28.3333 12.9173C28.0166 12.9173 27.7 12.8007 27.45 12.5507C26.9666 12.0673 26.9666 11.2673 27.45 10.784L30.8666 7.36732C27.9333 4.86732 24.15 3.33398 20 3.33398C10.8 3.33398 3.33331 10.8007 3.33331 20.0007C3.33331 29.2007 10.8 36.6673 20 36.6673C29.2 36.6673 36.6666 29.2007 36.6666 20.0007C36.6666 15.8507 35.1333 12.0673 32.6333 9.13398ZM22.9166 19.7007C23.9833 20.084 25.4166 20.8507 25.4166 23.3007C25.4166 25.384 23.7666 27.1007 21.75 27.1007H21.25V27.5173C21.25 28.2007 20.6833 28.7673 20 28.7673C19.3166 28.7673 18.75 28.2007 18.75 27.5173V27.1007H18.6166C16.4 27.1007 14.5833 25.234 14.5833 22.934C14.5833 22.234 15.15 21.6673 15.8333 21.6673C16.5166 21.6673 17.0833 22.234 17.0833 22.9173C17.0833 23.834 17.7666 24.584 18.6166 24.584H18.75V20.884L17.0833 20.3007C16.0166 19.9173 14.5833 19.1507 14.5833 16.7007C14.5833 14.6173 16.2333 12.9007 18.25 12.9007H18.75V12.5007C18.75 11.8173 19.3166 11.2507 20 11.2507C20.6833 11.2507 21.25 11.8173 21.25 12.5007V12.9173H21.3833C23.6 12.9173 25.4166 14.784 25.4166 17.084C25.4166 17.7673 24.85 18.334 24.1666 18.334C23.4833 18.334 22.9166 17.7673 22.9166 17.084C22.9166 16.1673 22.2333 15.4173 21.3833 15.4173H21.25V19.1173L22.9166 19.7007Z" fill="#2EAA62"/>
<path d="M37.8167 2.85065C37.6833 2.55065 37.45 2.30065 37.1333 2.16732C36.9833 2.11732 36.8333 2.08398 36.6667 2.08398H30C29.3167 2.08398 28.75 2.65065 28.75 3.33398C28.75 4.01732 29.3167 4.58398 30 4.58398H33.65L30.8667 7.36732C31.5 7.91732 32.0833 8.50065 32.6333 9.13398L35.4167 6.35065V10.0007C35.4167 10.684 35.9833 11.2507 36.6667 11.2507C37.35 11.2507 37.9167 10.684 37.9167 10.0007V3.33398C37.9167 3.16732 37.8833 3.01732 37.8167 2.85065Z" fill="#2EAA62"/>
</svg>
