<svg width="40" height="40" viewBox="0 0 40 40" fill="none" xmlns="http://www.w3.org/2000/svg">
<path d="M19.9998 37.0757C29.3248 37.0757 37.0755 29.3415 37.0755 20C37.0755 10.675 29.3077 2.92432 19.9827 2.92432C10.6419 2.92432 2.9248 10.675 2.9248 20C2.9248 29.3415 10.6584 37.0757 19.9998 37.0757ZM20.0005 34.23C12.0977 34.23 5.78552 27.9015 5.78552 20C5.78552 12.1143 12.0805 5.77003 19.9827 5.77003C27.8677 5.77003 34.2119 12.115 34.2291 20C34.2455 27.9022 27.8841 34.23 19.9991 34.23" fill="#2EAA62"/>
<path d="M26.1168 22.0748L25.2834 20.6915C25.1084 20.3832 24.9501 19.7998 24.9501 19.4582V17.3498C24.9501 15.3915 23.8001 13.6998 22.1418 12.9082C21.7084 12.1415 20.9084 11.6665 19.9918 11.6665C19.0834 11.6665 18.2668 12.1582 17.8334 12.9332C16.2084 13.7415 15.0834 15.4165 15.0834 17.3498V19.4582C15.0834 19.7998 14.9251 20.3832 14.7501 20.6832L13.9084 22.0748C13.5751 22.6332 13.5001 23.2498 13.7084 23.8165C13.9084 24.3748 14.3834 24.8082 15.0001 25.0165C16.6168 25.5665 18.3168 25.8332 20.0168 25.8332C21.7168 25.8332 23.4168 25.5665 25.0335 25.0248C25.6168 24.8332 26.0668 24.3915 26.2835 23.8165C26.5001 23.2415 26.4418 22.6082 26.1168 22.0748Z" fill="#2EAA62"/>
<path d="M22.3582 26.6748C22.0082 27.6415 21.0832 28.3332 19.9999 28.3332C19.3416 28.3332 18.6916 28.0665 18.2332 27.5915C17.9666 27.3415 17.7666 27.0082 17.6499 26.6665C17.7582 26.6832 17.8666 26.6915 17.9832 26.7082C18.1749 26.7332 18.3749 26.7582 18.5749 26.7748C19.0499 26.8165 19.5332 26.8415 20.0166 26.8415C20.4916 26.8415 20.9666 26.8165 21.4332 26.7748C21.6082 26.7582 21.7832 26.7498 21.9499 26.7248C22.0832 26.7082 22.2166 26.6915 22.3582 26.6748Z" fill="#2EAA62"/>
</svg>
