<svg width="36" height="36" viewBox="0 0 36 36" fill="none" xmlns="http://www.w3.org/2000/svg">
<path d="M23.7 3.31572C23.085 2.70072 22.02 3.12072 22.02 3.97572V9.21072C22.02 11.4007 23.88 13.2157 26.145 13.2157C27.57 13.2307 29.55 13.2307 31.245 13.2307C32.1 13.2307 32.55 12.2257 31.95 11.6257C29.79 9.45072 25.92 5.53572 23.7 3.31572Z" fill="#2EAA62"/>
<path d="M30.75 15.285H26.415C22.86 15.285 19.965 12.39 19.965 8.835V4.5C19.965 3.675 19.29 3 18.465 3H12.105C7.485 3 3.75 6 3.75 11.355V24.645C3.75 30 7.485 33 12.105 33H23.895C28.515 33 32.25 30 32.25 24.645V16.785C32.25 15.96 31.575 15.285 30.75 15.285ZM17.25 26.625H11.25C10.635 26.625 10.125 26.115 10.125 25.5C10.125 24.885 10.635 24.375 11.25 24.375H17.25C17.865 24.375 18.375 24.885 18.375 25.5C18.375 26.115 17.865 26.625 17.25 26.625ZM20.25 20.625H11.25C10.635 20.625 10.125 20.115 10.125 19.5C10.125 18.885 10.635 18.375 11.25 18.375H20.25C20.865 18.375 21.375 18.885 21.375 19.5C21.375 20.115 20.865 20.625 20.25 20.625Z" fill="#2EAA62"/>
</svg>
