<svg width="40" height="40" viewBox="0 0 40 40" fill="none" xmlns="http://www.w3.org/2000/svg">
<path d="M26.9833 3.33398H13.0167C6.95001 3.33398 3.33334 6.95065 3.33334 13.0173V26.9673C3.33334 33.0507 6.95001 36.6673 13.0167 36.6673H26.9667C33.0333 36.6673 36.65 33.0507 36.65 26.984V13.0173C36.6667 6.95065 33.05 3.33398 26.9833 3.33398ZM12.9167 15.234C12.9167 13.884 14.0167 12.7673 15.3833 12.7673C16.7333 12.7673 17.85 13.8673 17.85 15.234C17.85 16.584 16.75 17.7007 15.3833 17.7007C14.0167 17.684 12.9167 16.584 12.9167 15.234ZM14.7 26.7007C14.3833 26.7007 14.0667 26.584 13.8167 26.334C13.3333 25.8507 13.3333 25.0673 13.8167 24.5673L24.7333 13.6507C25.2167 13.1673 26.0167 13.1673 26.5 13.6507C26.9833 14.134 26.9833 14.934 26.5 15.4173L15.5833 26.334C15.3333 26.584 15.0167 26.7007 14.7 26.7007ZM26.2833 27.234C24.9333 27.234 23.8167 26.134 23.8167 24.7673C23.8167 23.4173 24.9167 22.3007 26.2833 22.3007C27.6333 22.3007 28.75 23.4007 28.75 24.7673C28.75 26.134 27.65 27.234 26.2833 27.234Z" fill="#2EAA62"/>
</svg>
