<svg width="40" height="40" viewBox="0 0 40 40" fill="none" xmlns="http://www.w3.org/2000/svg">
<path d="M11.6666 3.33398H9.99998C4.99998 3.33398 3.33331 6.31732 3.33331 10.0007V11.6673V35.0007C3.33331 36.384 4.89998 37.1673 5.99998 36.334L8.84998 34.2007C9.51665 33.7007 10.45 33.7673 11.05 34.3673L13.8166 37.1507C14.4666 37.8007 15.5333 37.8007 16.1833 37.1507L18.9833 34.3507C19.5666 33.7673 20.5 33.7007 21.15 34.2007L24 36.334C25.1 37.1507 26.6666 36.3673 26.6666 35.0007V6.66732C26.6666 4.83398 28.1666 3.33398 30 3.33398H11.6666ZM9.94998 23.3507C9.03331 23.3507 8.28331 22.6007 8.28331 21.684C8.28331 20.7673 9.03331 20.0173 9.94998 20.0173C10.8666 20.0173 11.6166 20.7673 11.6166 21.684C11.6166 22.6007 10.8666 23.3507 9.94998 23.3507ZM9.94998 16.684C9.03331 16.684 8.28331 15.934 8.28331 15.0173C8.28331 14.1007 9.03331 13.3507 9.94998 13.3507C10.8666 13.3507 11.6166 14.1007 11.6166 15.0173C11.6166 15.934 10.8666 16.684 9.94998 16.684ZM20 22.934H15C14.3166 22.934 13.75 22.3673 13.75 21.684C13.75 21.0007 14.3166 20.434 15 20.434H20C20.6833 20.434 21.25 21.0007 21.25 21.684C21.25 22.3673 20.6833 22.934 20 22.934ZM20 16.2673H15C14.3166 16.2673 13.75 15.7007 13.75 15.0173C13.75 14.334 14.3166 13.7673 15 13.7673H20C20.6833 13.7673 21.25 14.334 21.25 15.0173C21.25 15.7007 20.6833 16.2673 20 16.2673Z" fill="#2EAA7B"/>
<path d="M30.0167 3.33398V5.83398C31.1167 5.83398 32.1667 6.28398 32.9334 7.03398C33.7334 7.85065 34.1667 8.90065 34.1667 10.0007V14.034C34.1667 15.2673 33.6167 15.834 32.3667 15.834H29.1667V6.68398C29.1667 6.21732 29.55 5.83398 30.0167 5.83398V3.33398ZM30.0167 3.33398C28.1667 3.33398 26.6667 4.83398 26.6667 6.68398V18.334H32.3667C35 18.334 36.6667 16.6673 36.6667 14.034V10.0007C36.6667 8.16732 35.9167 6.50065 34.7167 5.28398C33.5 4.08398 31.85 3.35065 30.0167 3.33398C30.0334 3.33398 30.0167 3.33398 30.0167 3.33398Z" fill="#2EAA7B"/>
</svg>
