<svg width="25" height="25" viewBox="0 0 25 25" fill="none" xmlns="http://www.w3.org/2000/svg">
<path d="M8.30512 22.2079C5.65512 22.2079 3.49512 20.0579 3.49512 17.3979V14.5579C3.49512 13.8879 4.15512 13.4379 4.78512 13.6579C5.04512 13.7479 5.30512 13.8079 5.57512 13.8479C5.69512 13.8679 5.81512 13.8879 5.93512 13.8879C6.08512 13.9079 6.24512 13.9179 6.39512 13.9179C7.50512 13.9179 8.60512 13.5079 9.47512 12.7979C10.3051 13.5079 11.3751 13.9179 12.5151 13.9179C13.6551 13.9179 14.7151 13.5279 15.5451 12.8079C16.4051 13.5079 17.4851 13.9179 18.5851 13.9179C18.7551 13.9179 18.9351 13.9079 19.0951 13.8879C19.2151 13.8779 19.3151 13.8679 19.4251 13.8479C19.7251 13.8079 19.9951 13.7279 20.2651 13.6379C20.8851 13.4279 21.5351 13.8879 21.5351 14.5379V17.3979C21.5351 20.0479 19.3851 22.2079 16.7251 22.2079H8.30512Z" fill="#2EAA62"/>
<path d="M22.4847 8.64772L22.2047 5.98771C21.8047 3.08771 20.4847 1.90771 17.6647 1.90771H15.4047H13.9847H11.0647H9.63474H7.32474C4.50474 1.90771 3.19474 3.08771 2.78474 6.01771L2.52474 8.65772C2.42474 9.68772 2.70474 10.6877 3.31474 11.4677C4.04474 12.4177 5.16473 12.9577 6.41473 12.9577C7.62473 12.9577 8.78474 12.3477 9.51474 11.3777C10.1647 12.3477 11.2847 12.9577 12.5247 12.9577C13.7647 12.9577 14.8547 12.3777 15.5147 11.4177C16.2547 12.3677 17.3947 12.9577 18.5947 12.9577C19.8747 12.9577 21.0247 12.3877 21.7447 11.3877C22.3247 10.6177 22.5847 9.64772 22.4847 8.64772ZM14.0047 7.78771H13.2547V8.56772C13.2547 8.98772 12.9147 9.31772 12.5047 9.31772C12.0947 9.31772 11.7547 8.98772 11.7547 8.56772V7.78771H11.0047C10.5947 7.78771 10.2547 7.45772 10.2547 7.03771C10.2547 6.62772 10.5947 6.28771 11.0047 6.28771H11.7547V5.57771C11.7547 5.16771 12.0947 4.82771 12.5047 4.82771C12.9147 4.82771 13.2547 5.16771 13.2547 5.57771V6.28771H14.0047C14.4147 6.28771 14.7547 6.62772 14.7547 7.03771C14.7547 7.45772 14.4147 7.78771 14.0047 7.78771Z" fill="#2EAA62"/>
</svg>
