<svg width="16" height="16" viewBox="0 0 16 16" fill="none" xmlns="http://www.w3.org/2000/svg">
<path d="M7.96013 1.4729L6.35346 5.2129H4.7468C4.48013 5.2129 4.22013 5.23289 3.9668 5.28623L4.63346 3.68623L4.66013 3.62623L4.70013 3.51956C4.72013 3.4729 4.73346 3.4329 4.75346 3.39956C5.5268 1.60623 6.39346 1.04623 7.96013 1.4729Z" fill="#2EAA7B"/>
<path d="M12.4867 5.39302L12.4734 5.38635C12.0734 5.27302 11.6667 5.21302 11.2534 5.21302H7.08008L8.58008 1.72635L8.60008 1.67969C8.69341 1.71302 8.79341 1.75969 8.89341 1.79302L10.3667 2.41302C11.1867 2.75302 11.7601 3.10635 12.1134 3.53302C12.1734 3.61302 12.2267 3.68635 12.2801 3.77302C12.3401 3.86635 12.3867 3.95969 12.4134 4.05969C12.4401 4.11969 12.4601 4.17302 12.4734 4.23302C12.5734 4.57302 12.5801 4.95969 12.4867 5.39302Z" fill="#2EAA7B"/>
<path d="M12.1932 6.34622C11.8932 6.25956 11.5798 6.21289 11.2532 6.21289H4.7465C4.29316 6.21289 3.8665 6.29956 3.4665 6.47289C2.3065 6.97289 1.49316 8.12622 1.49316 9.46622V10.7662C1.49316 10.9262 1.5065 11.0796 1.5265 11.2396C1.67316 13.3596 2.8065 14.4929 4.9265 14.6329C5.07983 14.6529 5.23316 14.6662 5.39983 14.6662H10.5998C13.0665 14.6662 14.3665 13.4929 14.4932 11.1596C14.4998 11.0329 14.5065 10.8996 14.5065 10.7662V9.46622C14.5065 7.99289 13.5265 6.75289 12.1932 6.34622ZM9.6665 10.7929H8.49983V11.9996C8.49983 12.2729 8.27316 12.4996 7.99983 12.4996C7.7265 12.4996 7.49983 12.2729 7.49983 11.9996V10.7929H6.33316C6.05983 10.7929 5.83316 10.5729 5.83316 10.2929C5.83316 10.0196 6.05983 9.79289 6.33316 9.79289H7.49983V8.66622C7.49983 8.39289 7.7265 8.16622 7.99983 8.16622C8.27316 8.16622 8.49983 8.39289 8.49983 8.66622V9.79289H9.6665C9.93983 9.79289 10.1665 10.0196 10.1665 10.2929C10.1665 10.5729 9.93983 10.7929 9.6665 10.7929Z" fill="#2EAA7B"/>
</svg>
